<svg width="50" height="50" viewBox="0 0 50 50" fill="none" xmlns="http://www.w3.org/2000/svg">
<path d="M16.4219 36.5867C16.6231 37.1613 17.169 37.5444 17.7724 37.5444H31.3726C31.976 37.5444 32.522 37.1613 32.7231 36.5867C33.5755 34.1827 35.6156 32.4491 38.0291 31.9415V37.5444H40.9024H44.2259H47.6068C48.0761 37.5444 48.5071 37.3146 48.7753 36.941C49.0434 36.5579 49.1105 36.0695 48.9572 35.6289C47.5397 31.6159 43.7278 28.9245 39.4658 28.9245C37.7226 28.9245 36.0465 29.3843 34.5812 30.2079V25.9555H36.8702C37.6652 25.9555 38.3069 25.3138 38.3069 24.5188C38.3069 23.7239 37.6652 23.0822 36.8702 23.0822H34.5812V20.0077C39.4466 19.3086 43.2011 15.1136 43.2011 10.0565V7.18325C43.2011 6.3883 42.5594 5.7466 41.7644 5.7466C40.9695 5.7466 40.3278 6.3883 40.3278 7.18325V10.0565C40.3278 13.6194 37.7131 16.5885 34.3034 17.144C33.8533 15.966 32.9051 15.0369 31.7079 14.6155V12.9298C31.7079 11.1101 31.0183 9.434 29.8977 8.16975C32.6273 7.15451 34.5812 4.52066 34.5812 1.43665C34.5812 0.641703 33.9395 0 33.1445 0C32.3496 0 31.7079 0.641703 31.7079 1.43665C31.7079 3.81191 29.7732 5.7466 27.3979 5.7466H21.6513C19.2761 5.7466 17.3414 3.81191 17.3414 1.43665C17.3414 0.641703 16.6997 0 15.9047 0C15.1098 0 14.4681 0.641703 14.4681 1.43665C14.4681 4.52066 16.4219 7.15451 19.1516 8.16975C18.031 9.434 17.3414 11.1101 17.3414 12.9298V14.6155C16.1537 15.0369 15.196 15.966 14.7458 17.144C11.3362 16.5885 8.72148 13.6194 8.72148 10.0565V7.18325C8.72148 6.3883 8.07978 5.7466 7.28483 5.7466C6.48989 5.7466 5.84818 6.3883 5.84818 7.18325V10.0565C5.84818 15.1136 9.60262 19.3086 14.4681 20.0077V23.0822H11.9683C11.1734 23.0822 10.5317 23.7239 10.5317 24.5188C10.5317 25.3138 11.1734 25.9555 11.9683 25.9555H14.4681V30.1601C13.0314 29.3651 11.3841 28.9245 9.67925 28.9245C5.37888 28.9245 1.49992 31.6637 0.0920081 35.6289C-0.0612345 36.0695 0.00580912 36.5579 0.273984 36.941C0.542158 37.3242 0.982731 37.5444 1.45204 37.5444H5.51296H8.2426H11.1159V31.9511C13.5295 32.4491 15.5599 34.1923 16.4219 36.5867ZM40.9024 31.9415C42.636 32.2959 44.1684 33.2728 45.2219 34.6711H40.9024V31.9415ZM20.2147 12.9298C20.2147 10.5546 22.1494 8.6199 24.5246 8.6199C26.8999 8.6199 28.8346 10.5546 28.8346 12.9298V14.3665H20.2147V12.9298ZM17.3414 18.6764C17.3414 17.8815 17.9831 17.2398 18.778 17.2398H23.088H25.9613H30.2712C31.0662 17.2398 31.7079 17.8815 31.7079 18.6764V32.5832C31.7079 32.6024 31.7079 32.6119 31.7079 32.6311C31.2003 33.2536 30.7693 33.9337 30.4149 34.6711H25.9613H23.088H18.7301C18.3566 33.8858 17.8873 33.1674 17.3414 32.5162V18.6764ZM8.2426 34.6711H3.84645C4.91915 33.292 6.49946 32.2959 8.2426 31.9415V34.6711Z" fill="#2A62FF"/>
<path d="M47.6051 40.4176H40.9008V40.3889H38.0275V46.011C35.6139 45.513 33.5834 43.7698 32.7215 41.3658C32.5203 40.7912 31.9744 40.4081 31.371 40.4081H17.7707C17.1673 40.4081 16.6214 40.7912 16.4203 41.3658C15.5679 43.7698 13.5278 45.5034 11.1142 46.011V40.3985H8.24095V40.4176H1.44081C0.9715 40.4176 0.540505 40.6475 0.262753 41.0306C-0.00542136 41.4137 -0.072465 41.9022 0.0807776 42.3428C1.48869 46.2983 5.35807 49.0471 9.66802 49.0471C13.547 49.0471 17.062 46.7772 18.7189 43.3005H30.4037C32.0606 46.7772 35.5756 49.0471 39.4545 49.0471C43.7166 49.0471 47.5285 46.3558 48.946 42.3428C49.0992 41.9022 49.0322 41.4137 48.764 41.0306C48.5054 40.6475 48.0744 40.4176 47.6051 40.4176ZM8.24095 46.0206C6.49781 45.6662 4.9175 44.6797 3.8448 43.2909H8.24095V46.0206ZM40.9008 46.0206V43.2909H45.2203C44.1668 44.6893 42.6343 45.6662 40.9008 46.0206Z" fill="#2A62FF"/>
</svg>
