<?xml version="1.0" encoding="utf-8"?>
<!-- Generator: Adobe Illustrator 24.3.0, SVG Export Plug-In . SVG Version: 6.00 Build 0)  -->
<svg version="1.1" id="Layer_1" xmlns="http://www.w3.org/2000/svg" xmlns:xlink="http://www.w3.org/1999/xlink" x="0px" y="0px"
	 viewBox="0 0 40 40" style="enable-background:new 0 0 40 40;" xml:space="preserve">
<style type="text/css">
	.st0{fill:#8BB7F0;}
	.st1{fill:#275EFC;}
	.st2{fill:#F2FAFF;}
</style>
<path class="st0" d="M3.5,34.7c-1.6,0-2.9-1.3-2.9-2.9V3.5c0-1.6,1.3-2.9,2.9-2.9h28.3c1.6,0,2.9,1.3,2.9,2.9v28.3
	c0,1.6-1.3,2.9-2.9,2.9H3.5z"/>
<path class="st1" d="M31.8,1.2c1.3,0,2.3,1.1,2.3,2.3v28.3c0,1.3-1.1,2.3-2.3,2.3H3.5c-1.3,0-2.3-1.1-2.3-2.3V3.5
	c0-1.3,1.1-2.3,2.3-2.3H31.8 M31.8,0H3.5C1.6,0,0,1.6,0,3.5v28.3c0,1.9,1.6,3.5,3.5,3.5h28.3c1.9,0,3.5-1.6,3.5-3.5V3.5
	C35.3,1.6,33.7,0,31.8,0L31.8,0z"/>
<path class="st2" d="M8.2,39.4c-1.6,0-2.9-1.3-2.9-2.9V8.2c0-1.6,1.3-2.9,2.9-2.9h28.2c1.6,0,2.9,1.3,2.9,2.9v28.2
	c0,1.6-1.3,2.9-2.9,2.9H8.2z"/>
<path class="st1" d="M36.5,5.9c1.3,0,2.4,1.1,2.4,2.4v28.2c0,1.3-1.1,2.4-2.4,2.4H8.2c-1.3,0-2.4-1.1-2.4-2.4V8.2
	c0-1.3,1.1-2.4,2.4-2.4H36.5 M36.5,4.7H8.2c-1.9,0-3.5,1.6-3.5,3.5v28.2c0,1.9,1.6,3.5,3.5,3.5h28.2c1.9,0,3.5-1.6,3.5-3.5V8.2
	C40,6.3,38.4,4.7,36.5,4.7L36.5,4.7z"/>
<path class="st1" d="M26,23.8c-1.4,0-2.6-0.5-3.6-1.5c-0.9-0.9-1.5-2.2-1.5-3.6c0-1.4,0.5-2.6,1.5-3.6l3.3-3.3
	c0.9-0.9,2.2-1.5,3.6-1.5c1.4,0,2.6,0.5,3.6,1.5c0.9,0.9,1.5,2.2,1.5,3.6c0,1.4-0.5,2.6-1.5,3.6l-3.3,3.3
	C28.6,23.2,27.3,23.8,26,23.8z M29.3,12c-0.9,0-1.8,0.4-2.4,1l-3.3,3.3c-0.6,0.6-1,1.5-1,2.4c0,0.9,0.4,1.8,1,2.4
	c0.6,0.6,1.5,1,2.4,1c0.9,0,1.8-0.4,2.4-1l3.3-3.3c0.6-0.6,1-1.5,1-2.4s-0.4-1.8-1-2.4C31.1,12.4,30.2,12,29.3,12z"/>
<path class="st1" d="M29.3,11.8c1,0,1.9,0.4,2.6,1.1s1.1,1.6,1.1,2.6s-0.4,1.9-1.1,2.6l-3.3,3.3C27.9,22,27,22.4,26,22.4
	s-1.9-0.4-2.6-1.1c-0.7-0.7-1.1-1.6-1.1-2.6c0-1,0.4-1.9,1.1-2.6l3.3-3.3C27.4,12.1,28.3,11.8,29.3,11.8 M29.3,10.6
	c-1.2,0-2.5,0.5-3.4,1.4l-3.3,3.3c-1.9,1.9-1.9,4.9,0,6.8c0.9,0.9,2.2,1.4,3.4,1.4s2.5-0.5,3.4-1.4l3.3-3.3c1.9-1.9,1.9-4.9,0-6.8
	C31.8,11.1,30.5,10.6,29.3,10.6L29.3,10.6z"/>
<g>
	<path class="st1" d="M15.4,34.4c-1.4,0-2.6-0.5-3.6-1.5c-0.9-0.9-1.5-2.2-1.5-3.6c0-1.3,0.5-2.6,1.5-3.6l3.3-3.3
		c1-0.9,2.2-1.5,3.6-1.5c1.4,0,2.6,0.5,3.6,1.5c0.9,0.9,1.5,2.2,1.5,3.6c0,1.3-0.5,2.6-1.5,3.6L19,32.9C18,33.8,16.7,34.4,15.4,34.4
		z M18.7,22.6c-0.9,0-1.8,0.4-2.4,1L13,26.9c-0.6,0.6-1,1.5-1,2.4c0,0.9,0.4,1.8,1,2.4c0.6,0.6,1.5,1,2.4,1s1.8-0.4,2.4-1l3.3-3.3
		c0.6-0.6,1-1.5,1-2.4c0-0.9-0.4-1.8-1-2.4C20.5,22.9,19.6,22.6,18.7,22.6z"/>
	<path class="st1" d="M18.7,22.4c1,0,1.9,0.4,2.6,1.1c0.7,0.7,1.1,1.6,1.1,2.6c0,1-0.4,1.9-1.1,2.6L18,31.9
		c-0.7,0.7-1.6,1.1-2.6,1.1s-1.9-0.4-2.6-1.1c-0.7-0.7-1.1-1.6-1.1-2.6c0-1,0.4-1.9,1.1-2.6l3.3-3.3C16.8,22.7,17.8,22.4,18.7,22.4
		 M18.7,21.2c-1.2,0-2.5,0.5-3.4,1.4L12,25.9c-1.9,1.9-1.9,4.9,0,6.8c0.9,0.9,2.2,1.4,3.4,1.4c1.2,0,2.5-0.5,3.4-1.4l3.3-3.3
		c1.9-1.9,1.9-4.9,0-6.8C21.2,21.6,20,21.2,18.7,21.2L18.7,21.2z"/>
</g>
<g>
	
		<rect x="16.5" y="22.1" transform="matrix(0.7071 -0.7071 0.7071 0.7071 -9.2589 22.3529)" class="st1" width="11.6" height="0.5"/>
	<path class="st0" d="M18.2,26.5l8.2-8.2"/>
	<path class="st1" d="M18.2,27.3c-0.2,0-0.4-0.1-0.6-0.2c-0.2-0.2-0.2-0.4-0.2-0.6c0-0.2,0.1-0.4,0.2-0.6l8.2-8.2
		c0.2-0.2,0.4-0.2,0.6-0.2c0.2,0,0.4,0.1,0.6,0.2c0.3,0.3,0.3,0.8,0,1.2l-8.2,8.2C18.7,27.2,18.5,27.3,18.2,27.3z"/>
	<path class="st1" d="M18.2,27.1c-0.2,0-0.3-0.1-0.4-0.2c-0.2-0.2-0.2-0.6,0-0.8l8.2-8.2c0.2-0.2,0.6-0.2,0.8,0
		c0.2,0.2,0.2,0.6,0,0.8l-8.2,8.2C18.5,27,18.4,27.1,18.2,27.1z"/>
</g>
</svg>
