<svg width="18" height="18" viewBox="0 0 18 18" fill="none" xmlns="http://www.w3.org/2000/svg"><path d="m15.74 10.94.16-1.58c.09-.84.15-1.4.1-1.75h.02c.72 0 1.31-.62 1.31-1.39 0-.76-.59-1.39-1.31-1.39-.73 0-1.32.63-1.32 1.4 0 .34.12.66.32.9-.28.19-.66.58-1.22 1.17-.44.46-.65.68-.9.72a.7.7 0 0 1-.39-.06c-.22-.1-.37-.38-.67-.95l-1.57-2.97-.47-.87c.56-.3.95-.93.95-1.65A1.8 1.8 0 0 0 9 .67a1.8 1.8 0 0 0-1.75 1.85c0 .72.39 1.34.95 1.65l-.47.87-1.57 2.97c-.3.57-.45.85-.67.95a.7.7 0 0 1-.4.06c-.24-.04-.46-.26-.89-.72-.56-.6-.94-.98-1.22-1.17.2-.24.32-.56.32-.9 0-.77-.6-1.4-1.32-1.4-.72 0-1.31.63-1.31 1.4 0 .76.59 1.38 1.31 1.38H2c-.05.35.01.9.1 1.75l.16 1.58c.09.87.16 1.7.25 2.46H15.5c.09-.75.16-1.59.25-2.46Z" fill="white"/><path d="M8.05 17.33h1.9c2.5 0 3.74 0 4.57-.78.36-.34.59-.96.75-1.76H2.73c.16.8.4 1.42.75 1.76.83.78 2.08.78 4.57.78Z" fill="white"/></svg>