<?xml version="1.0" encoding="utf-8"?>
<!-- Generator: Adobe Illustrator 24.3.0, SVG Export Plug-In . SVG Version: 6.00 Build 0)  -->
<svg width="50" version="1.1" id="Layer_1" xmlns="http://www.w3.org/2000/svg" xmlns:xlink="http://www.w3.org/1999/xlink" x="0px" y="0px"
	 viewBox="0 0 500 500" style="enable-background:new 0 0 500 500;" xml:space="preserve">
<style type="text/css">
	.st0{fill-rule:evenodd;clip-rule:evenodd;fill:#FFFFFF;}
</style>
<g>
	<path class="st0" d="M378.2,305.5c-32.5,0-60.9,16.9-77.2,42.4l-98.3-56.1c6.3-12.6,10.2-26.4,10.2-41.4c0-9.2-1.8-17.9-4.3-26.4
		l102.4-58.5c16.8,18.2,40.6,29.8,67.2,29.8c50.8,0,91.8-41.2,91.8-91.8s-41.1-91.8-91.8-91.8c-50.7,0-91.8,41.2-91.8,91.8
		c0,9.2,1.8,17.9,4.3,26.4l-102.3,58.5c-16.8-18.2-40.5-29.8-67.3-29.8c-50.7,0-91.8,41.2-91.8,91.8c0,50.8,41.2,91.8,91.8,91.8
		c20.9,0,40-7.3,55.4-19l110.8,64.2c-0.3,3.3-1,6.5-1,10c0,50.7,41.2,91.8,91.8,91.8c50.8,0,91.8-41.2,91.8-91.8
		C470,346.6,428.9,305.5,378.2,305.5L378.2,305.5z M378.2,305.5"/>
</g>
</svg>
