<svg width="20" height="20" version="1.1" id="Layer_1" xmlns="http://www.w3.org/2000/svg" xmlns:xlink="http://www.w3.org/1999/xlink" x="0px" y="0px"
	 viewBox="0 0 104 131" style="enable-background:new 0 0 104 131;" xml:space="preserve">
<style type="text/css">
	.st0{fill:#FFFFFF;}
</style>
<path class="st0" d="M103,38.2c-0.3-4.9-1.2-9.5-2.8-13.7c-0.8-2.2-1.9-4.3-3.3-6.2c-1.3-1.8-2.6-3.5-4.2-5.1
	c-4.5-4.7-9.9-8.1-16.1-10c-7.4-2.3-14.9-2.4-22.6-0.1c-0.3,0.1-0.6,0.2-0.9,0.3c0,0,0,0,0,0C49.5,4.5,46,6.4,42.7,8.9
	c-4.2,3.2-7.7,7.2-10.4,11.9c-1.8,3.1-2.8,6.6-3.2,10.4c-0.3,1.1-0.3,2.2-0.1,3.4c0.1,0.7,0.4,1.5,0.7,2.2c0.8,1.6,2,2.8,3.5,3.5
	c2.2,1.1,4.8,1.2,7.2,0.1c3-1.5,4.7-4.7,4.4-7.9c0-0.3-0.1-0.5-0.1-0.8c0.1,0.3,0.1,0.5,0.1,0.8c0-0.3,0.1-0.5,0.1-0.8
	c0.7-4.4,3.3-8,8.1-11.1c1.8-1.2,3.8-2.1,5.7-2.8c5-1.7,10.3-1.4,15.6,0.8c8.4,3.4,14.1,12.5,13.5,21.5c-0.3,4.1-1.2,7.3-2.9,10.1
	c-1.7,2.8-3.9,5.1-6.5,6.8c-0.4,0.1-2.2,1.1-2.7,1.5c-6,3-31.7,15.7-37.4,18.4c-0.3,0.2-0.6,0.3-0.8,0.4c-3.6,1.7-5.4,5.8-3.8,9.7
	c0.3,0.8,0.8,1.6,1.4,2.2c2.1,2.2,5.2,3,7.9,2.1c0.2-0.1,0.4-0.1,0.6-0.2l1.1-0.5l2.2-1c0.5-0.2,36.2-17.7,36.2-17.7
	c0.3-0.1,0.7-0.3,1-0.5c0,0,0,0,0,0c0,0,0,0,0.1,0c7.8-3.9,13.7-10.7,16.4-19c0.4-1.2,0.8-2.3,1.1-3.5l0,0l0,0
	C102.7,45.3,103.1,41.7,103,38.2z M33.1,26.2C33.2,26.2,33.2,26.2,33.1,26.2c0.3-0.2,0.5-0.2,0.7-0.3C33.6,26,33.4,26.1,33.1,26.2z
	 M38.1,25.5c0.6,0.1,1.1,0.2,1.6,0.5C39.2,25.7,38.6,25.6,38.1,25.5z M43.4,29c0.2,0.2,0.3,0.5,0.4,0.8c0,0,0,0,0,0
	C43.7,29.5,43.6,29.3,43.4,29z"/>
<g>
	<path class="st0" d="M19.4,59.3C19.4,59.3,19.4,59.3,19.4,59.3C19.4,59.3,19.4,59.3,19.4,59.3C19.5,59.3,19.4,59.3,19.4,59.3z"/>
	<path class="st0" d="M74.7,96c-0.1-0.7-0.4-1.5-0.7-2.2c-0.8-1.6-2-2.8-3.5-3.5c-2.2-1.1-4.8-1.2-7.2-0.1c-3,1.5-4.7,4.7-4.4,7.9
		c0,0.3,0.1,0.5,0.1,0.8C59,98.7,59,98.5,59,98.2c0,0.3-0.1,0.5-0.1,0.8c-0.7,4.4-3.3,8-8.1,11.1c-1.8,1.2-3.8,2.1-5.7,2.8
		c-5,1.7-10.3,1.4-15.6-0.8C21,108.7,15.4,99.6,16,90.6c0.3-4.1,1.2-7.3,2.9-10.1c1.7-2.8,3.9-5.1,6.5-6.8c0,0,0,0,0,0l0,0
		c0.4-0.1,2.2-1.1,2.7-1.5c1.3-1.1,1.3-1.1,0,0c6-3,31.7-15.7,37.4-18.4c0,0,0,0,0,0c0.4-0.1,0.8-0.3,1.2-0.5
		c3.8-1.9,5.4-6.5,3.5-10.3c-1.9-3.8-6.5-5.4-10.3-3.5c-0.3,0.2-0.6,0.3-0.9,0.5l-2.2,1c-0.5,0.2-36.2,17.7-36.2,17.7
		c-0.3,0.1-0.7,0.3-1,0.5c0.7-0.3,1.4-0.5,2.1-0.7c-0.7,0.1-1.4,0.3-2.1,0.7c0,0-0.1,0-0.1,0.1C11.6,63.2,5.7,70,2.9,78.4
		c-0.4,1.2-0.8,2.3-1.1,3.5l0,0l0,0c-1,3.5-1.3,7.1-1.2,10.6c0.3,4.9,1.2,9.5,2.8,13.7c0.8,2.2,1.9,4.3,3.3,6.2
		c1.3,1.8,2.6,3.5,4.2,5.1c4.5,4.7,9.9,8.1,16.1,10c7.4,2.3,14.9,2.4,22.6,0.1c0.3-0.1,0.6-0.2,0.9-0.3c0,0,0,0,0,0
		c3.6-1.2,7.2-3.1,10.5-5.6c4.2-3.2,7.7-7.2,10.4-11.9c1.8-3.1,2.8-6.6,3.2-10.4C74.8,98.3,74.9,97.2,74.7,96z"/>
</g>
</svg>
