<svg width="135" height="30" version="1.1" id="Layer_1" xmlns="http://www.w3.org/2000/svg" xmlns:xlink="http://www.w3.org/1999/xlink" x="0px" y="0px"
	 viewBox="0 0 605 131" style="enable-background:new 0 0 605 131;" xml:space="preserve">
<style type="text/css">
	.st0{fill:#303042;}
	.st1{fill:none;}
	.st2{fill:#FF1F1F;}
	.st3{fill:#AA02D3;}
	.st4{fill:#AF1CF4;}
	.st5{fill:#EF726C;}
	.st6{fill:#FF7878;}
	.st7{fill:#2D2F54;}
	.st8{fill:#0847F9;}
	.st9{fill:#8761FF;}
	.st10{fill:#25BF88;}
	.st11{opacity:0.12;fill:#0847F9;}
</style>
<g>
	<g>
		<path class="st0" d="M151.5,103.8c-0.7,0-1.2-0.2-1.7-0.7c-0.5-0.5-0.7-1.2-0.7-2V42.8c0-0.9,0.2-1.6,0.7-2.1
			c0.5-0.5,1-0.7,1.7-0.7h21.3c8,0,13.7,1.3,17.1,3.8c3.3,2.4,5,6.6,5,12.6v0.8c0,5.4-1.6,9.3-4.8,11.8c-0.6,0.5-0.9,1-0.9,1.6
			c0,0.6,0.4,1.2,1.1,1.7c4.2,2.6,6.3,7.3,6.3,13.9v1c0,6.1-1.7,10.5-5,12.9c-3.4,2.6-9.3,3.8-17.3,3.8H151.5z M161.7,75.4
			c-1.6,0-2.7,1.1-2.7,2.8v13.2c0,1.7,1,2.8,2.7,2.8h13.7c4.3,0,7.2-0.7,8.8-2.1c1.6-1.4,2.5-3.8,2.5-7v-1c0-2.9-0.9-5.2-2.7-6.6
			c-1.7-1.4-4.5-2.1-8.6-2.1H161.7z M161.7,49.7c-1.6,0-2.7,1-2.7,2.7v12.1c0,1.7,1,2.8,2.7,2.8h12.3c4,0,6.8-0.7,8.4-2
			c1.7-1.4,2.5-3.5,2.5-6.3v-0.9c0-2.9-0.8-5.1-2.5-6.5c-1.6-1.3-4.5-2-8.8-2H161.7z"/>
		<path class="st0" d="M224.5,104.3c-7.4,0-12.7-1.6-15.6-4.9c-3-3.3-4.5-9.6-4.5-18.9v-1.9c0-9.2,1.5-15.5,4.4-18.8
			c2.9-3.2,8.1-4.9,15.4-4.9h0.9c7.3,0,12.4,1.3,15.4,4c2.9,2.6,4.3,7.6,4.3,14.8v2.4c0,2.5-0.5,4.2-1.5,5.2c-1,1-2.5,1.5-4.7,1.5
			h-21.7c-1.6,0-2.7,1.1-2.7,2.8c0,3.5,0.8,6,2.3,7.4c1.5,1.5,4.1,2.2,7.9,2.2h1.3c2.9,0,6.2-0.4,9.8-1.3c4.7-1.1,5.4-1.2,5.5-1.2
			c1.2,0,2.1,0.4,2.1,2.5v3.6c0,1.2-0.2,2-0.6,2.4c-0.5,0.5-1.3,0.9-2.3,1.2c-4.6,1.2-9.4,1.8-14.5,1.8H224.5z M223.9,63.3
			c-3.6,0-6,0.8-7.5,2.3c-1.4,1.5-2.1,4.1-2.1,7.9c0,0.9,0.2,1.6,0.6,2c0.4,0.5,1.1,0.7,2,0.7h15.6c1.6,0,2.7-1,2.7-2.7
			c0-4-0.7-6.6-2-8c-1.4-1.5-3.9-2.2-7.9-2.2H223.9z"/>
		<path class="st0" d="M272.4,104.3c-5.8,0-9.9-1.5-12.2-4.6c-2.4-3.1-3.6-9.2-3.6-18.1V67.8c0-1.7-1-2.8-2.6-2.8h-1.2
			c-0.7,0-1.3-0.2-1.7-0.7c-0.5-0.5-0.7-1.2-0.7-2v-4c0-0.9,0.2-1.6,0.7-2.1c0.4-0.5,1-0.7,1.7-0.7h1.2c1.6,0,2.6-1,2.6-2.7v-5.5
			c0-0.9,0.2-1.6,0.7-2.1c0.4-0.5,1-0.7,1.8-0.7h4.9c0.7,0,1.3,0.2,1.8,0.7c0.5,0.5,0.7,1.2,0.7,2.1v5.5c0,0.9,0.2,1.6,0.6,2
			c0.4,0.5,1.1,0.7,2,0.7h9.6c0.7,0,1.2,0.2,1.7,0.8c0.5,0.6,0.7,1.2,0.7,2.1v4c0,0.9-0.2,1.5-0.7,2c-0.5,0.5-1,0.7-1.7,0.7H269
			c-1.6,0-2.6,1.1-2.6,2.8v15.5c0,4.1,0.5,6.9,1.4,8.6c1,1.9,2.8,2.9,5.3,2.9h0.3c1.5,0,3-0.2,4.5-0.7c1.8-0.5,2.4-0.6,2.5-0.6
			c1,0,2,0.2,2,2.7v3.7c0,1.9-0.8,3-2.6,3.5c-2,0.5-4.3,0.8-6.8,0.8H272.4z"/>
		<path class="st0" d="M308.9,104.3c-5.8,0-9.9-1.5-12.2-4.6c-2.4-3.1-3.6-9.2-3.6-18.1V67.8c0-1.7-1-2.8-2.6-2.8h-1.2
			c-0.7,0-1.3-0.2-1.7-0.7c-0.5-0.5-0.7-1.2-0.7-2v-4c0-0.9,0.2-1.6,0.7-2.1c0.4-0.5,1-0.7,1.7-0.7h1.2c1.6,0,2.6-1,2.6-2.7v-5.5
			c0-0.9,0.2-1.6,0.7-2.1c0.4-0.5,1-0.7,1.8-0.7h4.9c0.7,0,1.3,0.2,1.8,0.7c0.5,0.5,0.7,1.2,0.7,2.1v5.5c0,0.9,0.2,1.6,0.6,2
			c0.4,0.5,1.1,0.7,2,0.7h9.6c0.7,0,1.2,0.2,1.7,0.8c0.5,0.6,0.7,1.2,0.7,2.1v4c0,0.9-0.2,1.5-0.7,2c-0.5,0.5-1,0.7-1.7,0.7h-9.6
			c-1.6,0-2.6,1.1-2.6,2.8v15.5c0,4.1,0.5,6.9,1.4,8.6c1,1.9,2.8,2.9,5.3,2.9h0.3c1.5,0,3-0.2,4.5-0.7c1.8-0.5,2.4-0.6,2.5-0.6
			c1,0,2,0.2,2,2.7v3.7c0,1.9-0.8,3-2.6,3.5c-2,0.5-4.3,0.8-6.8,0.8H308.9z"/>
		<path class="st0" d="M344.3,104.3c-7.4,0-12.7-1.6-15.6-4.9c-3-3.3-4.5-9.6-4.5-18.9v-1.9c0-9.2,1.5-15.5,4.4-18.8
			c2.9-3.2,8.1-4.9,15.4-4.9h0.9c7.3,0,12.4,1.3,15.4,4c2.9,2.6,4.3,7.6,4.3,14.8v2.4c0,2.5-0.5,4.2-1.5,5.2c-1,1-2.5,1.5-4.7,1.5
			h-21.7c-1.6,0-2.7,1.1-2.7,2.8c0,3.5,0.8,6,2.3,7.4c1.5,1.5,4.1,2.2,7.9,2.2h1.3c2.9,0,6.2-0.4,9.8-1.3c4.7-1.1,5.4-1.2,5.5-1.2
			c1.2,0,2.1,0.4,2.1,2.5v3.6c0,1.2-0.2,2-0.6,2.4c-0.5,0.5-1.3,0.9-2.3,1.2c-4.6,1.2-9.4,1.8-14.5,1.8H344.3z M343.8,63.3
			c-3.6,0-6,0.8-7.5,2.3c-1.4,1.5-2.1,4.1-2.1,7.9c0,0.9,0.2,1.6,0.6,2c0.4,0.5,1.1,0.7,2,0.7h15.6c1.6,0,2.7-1,2.7-2.7
			c0-4-0.7-6.6-2-8c-1.4-1.5-3.9-2.2-7.9-2.2H343.8z"/>
		<path class="st0" d="M375.7,103.8c-0.7,0-1.3-0.2-1.8-0.7c-0.5-0.5-0.7-1.2-0.7-2V66.2c0-4.8,0.7-6.8,1.3-7.6
			c0.9-1.1,2.7-2.1,5.6-2.8c2.4-0.6,5.1-0.9,8.1-0.9h0.5c4.1,0,7.4,0.3,9.8,0.8c0.9,0.2,1.6,0.6,2,1.1c0.3,0.3,0.6,1,0.6,2.5V63
			c0,2-0.7,2.7-2.4,2.7c-0.1,0-0.8,0-3.1-0.6c-1.8-0.4-3.6-0.7-5.4-0.7h-0.3c-0.3,0-0.9,0-3.8,0.4l-0.1,0c-1.2,0.4-2,1-2.4,1.8
			c-0.3,0.7-0.5,1.7-0.5,3.2v31.2c0,0.8-0.2,1.4-0.7,2c-0.5,0.5-1,0.8-1.7,0.8H375.7z"/>
		<path class="st0" d="M427.4,103.8c-6.8,0-11.6-1.7-14.3-5c-2.8-3.4-4.2-10.1-4.2-19.8V42.8c0-0.9,0.2-1.6,0.7-2.1
			c0.5-0.5,1-0.7,1.7-0.7h5.2c0.7,0,1.3,0.2,1.8,0.7c0.5,0.5,0.7,1.2,0.7,2.1v37.4c0,5.7,0.7,9.3,2.2,11.1c1.5,1.8,4.7,2.7,9.6,2.7
			h14.5c0.7,0,1.3,0.2,1.8,0.7c0.5,0.5,0.7,1.2,0.7,2.1v4.2c0,0.8-0.2,1.5-0.7,2c-0.5,0.5-1,0.7-1.8,0.7H427.4z"/>
		<path class="st0" d="M458,103.8c-0.7,0-1.2-0.2-1.7-0.7c-0.5-0.5-0.7-1.2-0.7-2V58.2c0-0.8,0.2-1.5,0.7-2.1c0.5-0.5,1-0.8,1.7-0.8
			h5c0.7,0,1.3,0.2,1.7,0.8c0.5,0.6,0.7,1.2,0.7,2.1v42.9c0,0.8-0.2,1.5-0.7,2c-0.5,0.5-1,0.7-1.8,0.7H458z M458,48.6
			c-0.7,0-1.2-0.2-1.7-0.7c-0.5-0.5-0.7-1.2-0.7-2.1V41c0-0.9,0.2-1.6,0.7-2.1c0.5-0.5,1-0.7,1.7-0.7h5c0.7,0,1.3,0.2,1.8,0.7
			c0.5,0.5,0.7,1.2,0.7,2.1v4.8c0,0.9-0.2,1.6-0.7,2.1c-0.5,0.5-1,0.7-1.8,0.7H458z"/>
		<path class="st0" d="M506,103.8c-0.7,0-1.3-0.2-1.8-0.7c-0.5-0.5-0.7-1.2-0.7-2V77.2c0-4.9-0.6-8.1-2-9.9
			c-1.4-1.8-3.8-2.8-7.3-2.8c-1,0-2.8,0.2-5.5,0.5c-1.3,0.2-2.3,0.7-2.8,1.6c-0.5,0.8-0.7,1.8-0.7,3.3v31.2c0,0.8-0.2,1.4-0.7,2
			c-0.5,0.5-1,0.8-1.7,0.8h-5c-0.7,0-1.3-0.2-1.8-0.7c-0.5-0.5-0.7-1.2-0.7-2v-36c0-2.9,0.4-5,1.3-6.2c0.8-1.2,2.3-2.1,4.3-2.6
			c4.2-0.9,8.7-1.4,13.3-1.4c7.2,0,12.3,1.5,15,4.3c2.7,2.9,4.1,8.7,4.1,17.3v24.5c0,0.8-0.2,1.5-0.7,2c-0.5,0.5-1,0.7-1.7,0.7H506z
			"/>
		<path class="st0" d="M554.8,103.8c-2.2,0-3.9-1.3-5.1-4.1L541.8,85c-0.8-1.6-2.2-2.5-3.8-2.5h-2.4c-1.6,0-2.6,1.1-2.6,2.8v15.8
			c0,0.8-0.2,1.5-0.7,2c-0.5,0.5-1,0.7-1.8,0.7h-5c-0.7,0-1.2-0.2-1.7-0.7c-0.5-0.5-0.7-1.2-0.7-2V41.9c0-0.9,0.2-1.6,0.7-2.1
			c0.5-0.5,1-0.7,1.7-0.7h5c0.7,0,1.3,0.2,1.8,0.7c0.5,0.5,0.7,1.2,0.7,2.1v27.9c0,0.9,0.2,1.6,0.6,2c0.4,0.5,1.1,0.7,2,0.7h2.4
			c1.5,0,2.7-0.7,3.5-2l6.9-10.8c0.9-1.8,1.8-2.9,2.5-3.6c0.6-0.5,1.5-0.8,2.5-0.8h6.9c0.8,0,1.2,0.3,1.4,0.9c0.3,0.8,0,1.8-0.9,3.1
			l-10.2,14.2c-0.9,1.2-1.2,2.3-1.2,3.3c0,0.9,0.5,2.2,1.5,4L562,99.8c0.7,1.2,0.9,2.2,0.6,3.1c-0.2,0.7-0.6,0.9-1.3,0.9H554.8z"/>
		<path class="st0" d="M585.7,104.3c-5.7,0-10.7-0.6-14.7-1.8c-1.1-0.3-1.8-0.7-2.2-1.2c-0.3-0.3-0.6-1.1-0.6-2.7v-3.9
			c0-0.8,0.2-1.5,0.7-2c0.4-0.5,1-0.7,1.7-0.7c0.2,0,1.1,0.1,5.9,1.5c3.6,1.1,7,1.6,10.1,1.6c3.2,0,5.4-0.4,6.7-1.3
			c1.4-0.9,2.1-2.4,2.1-4.4c0-1.9-0.9-3.3-2.5-4.1c-1.3-0.6-4.1-1.4-8.5-2.3c-6.6-1.3-10.9-2.9-12.9-4.8c-1.9-1.8-2.9-4.9-2.9-9.3
			c0-4.9,1.3-8.5,4-10.7c2.7-2.2,7.2-3.4,13.4-3.4c6.1,0,11,0.7,14.8,1.9c1,0.4,1.8,0.8,2.2,1.3c0.3,0.3,0.6,1,0.6,2.5v3.9
			c0,0.9-0.2,1.6-0.6,2.1c-0.4,0.5-0.9,0.7-1.7,0.7c-0.1,0-0.9-0.1-5.5-1.5c-3.4-1.1-6.6-1.6-9.6-1.6c-2.7,0-4.6,0.3-5.7,1
			c-1.3,0.8-1.9,2.1-1.9,4c0,1.5,0.6,2.7,1.8,3.5c1,0.7,3,1.3,6.1,2.1c7.9,1.6,13.1,3.4,15.5,5.2c2.2,1.7,3.3,4.7,3.3,8.9
			c0,5.3-1.5,9.3-4.3,11.7C597.9,103,592.8,104.3,585.7,104.3z"/>
	</g>
	<g>
		<g>
			<path class="st1" d="M82.8,72.4c-0.1,0-0.3,0-0.4,0C82.5,72.4,82.7,72.4,82.8,72.4z"/>
			<path class="st2" d="M82.8,72.4c-0.1,0-0.3,0-0.4,0c-2.8-0.1-5.5-1.7-6.9-4.4c-1.7-3.4-0.8-7.3,2-9.7c-6.1,3.1-32.4,16-38.2,18.8
				c-0.4,0.2-0.6,0.3-0.8,0.4c-3.7,1.7-5.5,6-3.9,10c0.3,0.8,0.8,1.6,1.5,2.3c2.2,2.3,5.3,3,8.1,2.1c0.2-0.1,0.4-0.1,0.6-0.2
				l1.2-0.5l2.3-1c0.5-0.2,37-18.1,37-18.1c0.3-0.2,0.7-0.3,1-0.5C85.1,72.1,83.9,72.4,82.8,72.4z"/>
			<path class="st3" d="M105.5,37.6c-0.3-5-1.2-9.7-2.8-14c-0.8-2.2-2-4.4-3.4-6.4c-1.3-1.8-2.7-3.5-4.3-5.2
				C90.4,7.3,84.8,3.8,78.5,1.8C71-0.6,63.3-0.6,55.5,1.7c-0.3,0.1-0.6,0.2-0.9,0.3c0,0,0,0,0,0c-3.7,1.2-7.3,3.1-10.7,5.7
				C39.5,11,36,15.1,33.2,19.9c-1.8,3.2-2.9,6.7-3.3,10.6c0.6-2.2,2.1-4.1,4.2-5.2c4-2,8.9-0.4,10.9,3.7c0.4,0.9,0.7,1.8,0.8,2.8
				c0-0.3,0.1-0.6,0.1-0.8c0.7-4.5,3.4-8.2,8.2-11.4c1.9-1.2,3.8-2.2,5.8-2.8c5.1-1.7,10.5-1.4,16,0.8c8.6,3.5,14.4,12.8,13.8,22
				c-0.3,4.2-1.2,7.5-2.9,10.3c-1.8,2.9-4,5.2-6.6,6.9c3.7-1.2,7.8,0.5,9.6,4.1c2,3.9,0.4,8.7-3.6,10.7c8-4,14-11,16.8-19.5v0
				c0.5-1.2,0.8-2.4,1.2-3.6l0,0l0,0C105.2,44.9,105.6,41.3,105.5,37.6z"/>
			<path class="st4" d="M86.3,71.6C86.3,71.6,86.3,71.6,86.3,71.6C86.3,71.6,86.2,71.6,86.3,71.6C86.2,71.6,86.2,71.6,86.3,71.6z"/>
			<path class="st5" d="M89.9,60.8c-1.8-3.6-5.9-5.3-9.6-4.1c-0.4,0.1-0.7,0.3-1.1,0.4c-0.6,0.3-1.1,0.7-1.6,1.1
				c-2.7,2.3-3.6,6.3-2,9.7c1.4,2.7,4,4.3,6.9,4.4c0.1,0,0.3,0,0.4,0c1.2,0,2.3-0.3,3.4-0.8c0,0,0.1,0,0.1-0.1
				C90.2,69.6,91.8,64.8,89.9,60.8z"/>
		</g>
		<path class="st6" d="M45.8,31.8c-0.1-1.2-0.5-2.5-1.3-3.6c-2.1-3.2-6.1-4.5-9.7-3.2c-2.6,1-4.3,3.1-5,5.5
			c-0.3,1.1-0.4,2.3-0.2,3.5c0.1,0.8,0.4,1.5,0.7,2.2c0.8,1.6,2.1,2.8,3.6,3.6c2.2,1.1,4.9,1.2,7.3,0.1
			C44.5,38.3,46.2,35.1,45.8,31.8z"/>
	</g>
	<g>
		<path class="st1" d="M23.5,58.4c0.1,0,0.3,0,0.4,0C23.8,58.4,23.7,58.4,23.5,58.4z"/>
		<path class="st7" d="M71.8,42.6c-1.9-3.9-6.6-5.5-10.5-3.5c-0.3,0.2-0.6,0.3-0.9,0.5l-2.3,1c-0.5,0.2-37,18.1-37,18.1
			c-0.3,0.2-0.7,0.3-1,0.5c1.1-0.5,2.3-0.8,3.4-0.8c0.1,0,0.3,0,0.4,0c2.8,0.1,5.5,1.7,6.9,4.4c1.7,3.4,0.8,7.3-2,9.7
			c6.1-3.1,32.4-16,38.2-18.8c0,0,0,0,0,0c0.4-0.1,0.8-0.3,1.3-0.5C72.2,51.2,73.8,46.5,71.8,42.6z"/>
		<path class="st8" d="M0.9,93.1c0.3,5,1.2,9.7,2.8,14c0.8,2.2,2,4.4,3.4,6.4c1.3,1.8,2.7,3.5,4.3,5.2c4.6,4.8,10.1,8.2,16.4,10.2
			c7.5,2.4,15.3,2.4,23.1,0.1c0.3-0.1,0.6-0.2,0.9-0.3c0,0,0,0,0,0c3.7-1.2,7.3-3.1,10.7-5.7c4.3-3.2,7.9-7.3,10.6-12.2
			c1.8-3.2,2.9-6.7,3.3-10.6c-0.6,2.2-2.1,4.1-4.2,5.2c-4,2-8.9,0.4-10.9-3.7c-0.4-0.9-0.7-1.8-0.8-2.8c0,0.3-0.1,0.6-0.1,0.8
			c-0.7,4.5-3.4,8.2-8.2,11.4c-1.9,1.2-3.8,2.2-5.8,2.8c-5.1,1.7-10.5,1.4-16-0.8c-8.6-3.5-14.4-12.8-13.8-22
			c0.3-4.2,1.2-7.5,2.9-10.3c1.8-2.9,4-5.2,6.6-6.9c-3.7,1.2-7.8-0.5-9.6-4.1c-2-3.9-0.4-8.7,3.6-10.7c-8,4-14,11-16.8,19.5v0
			c-0.5,1.2-0.8,2.4-1.2,3.6l0,0l0,0C1.1,85.9,0.7,89.5,0.9,93.1z"/>
		<path class="st4" d="M20.1,59.2C20.1,59.2,20,59.2,20.1,59.2C20,59.2,20.1,59.2,20.1,59.2C20.1,59.2,20.1,59.2,20.1,59.2z"/>
		<path class="st9" d="M30.8,62.8c-1.4-2.7-4-4.3-6.9-4.4c-0.1,0-0.3,0-0.4,0c-1.2,0-2.3,0.3-3.4,0.8c0,0-0.1,0-0.1,0.1
			c-3.9,2-5.5,6.8-3.6,10.7c1.8,3.6,5.9,5.3,9.6,4.1l0,0c0.4-0.1,0.7-0.3,1.1-0.4c0.6-0.3,1.1-0.7,1.6-1.1
			C31.6,70.1,32.5,66.2,30.8,62.8z"/>
	</g>
	<path class="st10" d="M76.5,96.8c-0.1-0.8-0.4-1.5-0.7-2.2c-0.8-1.6-2.1-2.8-3.6-3.6c-2.2-1.1-4.9-1.2-7.3-0.1
		c-3.1,1.5-4.8,4.8-4.5,8.1c0.1,1.2,0.5,2.5,1.3,3.6c2,3.2,6.1,4.5,9.6,3.2c2.6-1,4.3-3.1,5-5.5C76.7,99.1,76.7,97.9,76.5,96.8z"/>
	<path class="st11" d="M76.5,96.8c-0.1-0.8-0.4-1.5-0.7-2.2c-0.8-1.6-2.1-2.8-3.6-3.6c-2.2-1.1-4.9-1.2-7.3-0.1
		c-3.1,1.5-4.8,4.8-4.5,8.1c0.1,1.2,0.5,2.5,1.3,3.6c2,3.2,6.1,4.5,9.6,3.2c2.6-1,4.3-3.1,5-5.5C76.7,99.1,76.7,97.9,76.5,96.8z"/>
</g>
</svg>
