<svg width="12" height="14" viewBox="0 0 12 14" fill="none" xmlns="http://www.w3.org/2000/svg">
<path d="M0.667969 3.66667H11.3346M4.66797 6.33333V10.3333M7.33464 6.33333V10.3333M1.33464 3.66667L2.0013 11.6667C2.0013 12.0203 2.14178 12.3594 2.39183 12.6095C2.64187 12.8595 2.98101 13 3.33464 13H8.66797C9.02159 13 9.36073 12.8595 9.61078 12.6095C9.86083 12.3594 10.0013 12.0203 10.0013 11.6667L10.668 3.66667M4.0013 3.66667V1.66667C4.0013 1.48986 4.07154 1.32029 4.19656 1.19526C4.32159 1.07024 4.49116 1 4.66797 1H7.33464C7.51145 1 7.68102 1.07024 7.80604 1.19526C7.93106 1.32029 8.0013 1.48986 8.0013 1.66667V3.66667" stroke="#F04438" stroke-width="1.33333" stroke-linecap="round" stroke-linejoin="round"/>
</svg>
